<?xml version="1.0" standalone="no"?>
<!DOCTYPE svg PUBLIC "-//W3C//DTD SVG 20010904//EN"
 "http://www.w3.org/TR/2001/REC-SVG-20010904/DTD/svg10.dtd">
<svg version="1.0" xmlns="http://www.w3.org/2000/svg"
 width="308.000000pt" height="218.000000pt" viewBox="0 0 308.000000 218.000000"
 preserveAspectRatio="xMidYMid meet">

<g transform="translate(0.000000,218.000000) scale(0.100000,-0.100000)"
fill="#000000" stroke="none">
<path d="M1095 2094 c-16 -2 -88 -11 -160 -20 -177 -21 -196 -27 -233 -72 -32
-40 -83 -66 -194 -96 -102 -29 -137 -100 -100 -207 l20 -59 -29 -55 c-27 -51
-29 -62 -29 -163 0 -100 2 -110 23 -130 13 -12 35 -22 49 -22 20 0 29 -7 37
-30 10 -29 12 -30 69 -30 l58 0 -34 70 c-34 68 -36 70 -74 70 -36 0 -38 1 -38
33 0 32 0 32 45 29 43 -4 45 -3 45 24 0 75 101 192 184 213 113 28 223 2 295
-70 39 -39 70 -102 71 -142 l0 -27 426 2 427 3 11 45 c32 125 135 200 274 200
53 0 79 -6 120 -26 84 -42 152 -133 152 -206 0 -16 11 -18 96 -18 l95 0 -3
-27 c-3 -28 -4 -28 -92 -33 l-88 -5 -18 -49 c-11 -26 -27 -57 -36 -67 -17 -18
-15 -19 40 -19 53 0 58 2 74 30 16 28 21 30 75 30 114 0 127 24 127 231 0 175
-10 220 -55 255 -18 13 -35 24 -38 24 -4 0 -47 18 -95 40 -112 50 -212 74
-426 101 -99 12 -188 29 -211 39 -92 41 -254 102 -310 117 -43 11 -124 16
-290 18 -126 2 -243 1 -260 -1z m487 -89 c77 -12 246 -73 339 -121 17 -8 81
-22 142 -30 300 -38 396 -60 512 -114 114 -53 142 -94 115 -164 -9 -24 -14
-26 -75 -26 -36 0 -65 4 -65 9 0 6 -17 11 -37 13 -29 2 -38 7 -37 20 1 10 -2
16 -6 13 -5 -3 -22 6 -38 20 -54 45 -131 75 -198 75 -80 0 -141 -22 -201 -73
l-50 -43 -125 12 c-69 7 -178 15 -244 19 -65 3 -171 10 -234 15 -63 5 -163 10
-221 10 -95 0 -113 3 -165 27 -42 20 -80 28 -133 31 -87 5 -135 -8 -205 -53
-40 -27 -58 -33 -86 -30 -26 3 -30 2 -15 -4 11 -5 24 -6 29 -3 5 3 6 0 2 -7
-4 -6 -12 -8 -18 -5 -6 4 -8 -1 -3 -15 9 -28 -3 -27 -16 2 -9 20 -9 20 -4 -5
3 -15 1 -30 -5 -33 -5 -3 -10 1 -10 11 0 12 -6 15 -21 11 l-21 -6 21 20 c21
20 30 45 11 34 -6 -4 -10 11 -10 37 -1 24 -7 54 -15 68 -18 32 -19 74 -1 89 8
7 48 22 90 35 91 28 158 66 185 105 19 26 30 30 103 40 232 33 564 40 710 16z
m131 -412 c-7 -2 -19 -2 -25 0 -7 3 -2 5 12 5 14 0 19 -2 13 -5z m-6 -19 c-3
-3 -12 -4 -19 -1 -8 3 -5 6 6 6 11 1 17 -2 13 -5z m953 -54 c0 -6 -23 -9 -52
-8 l-53 1 50 7 c28 4 51 8 53 8 1 1 2 -2 2 -8z m-2137 -7 c-7 -2 -19 -2 -25 0
-7 3 -2 5 12 5 14 0 19 -2 13 -5z"/>
<path d="M2640 1596 c0 -3 9 -10 20 -16 11 -6 20 -8 20 -6 0 3 -9 10 -20 16
-11 6 -20 8 -20 6z"/>
<path d="M746 1580 c-109 -33 -163 -198 -98 -301 36 -54 57 -74 105 -94 153
-64 322 90 277 254 -15 55 -80 127 -129 141 -43 12 -115 12 -155 0z m142 -80
c41 -25 67 -78 58 -116 -6 -22 -9 -25 -17 -13 -12 20 -11 37 2 19 9 -13 10
-13 6 0 -2 8 -9 16 -15 16 -7 1 -17 2 -23 3 -5 0 -8 5 -4 10 3 5 0 13 -7 17
-7 4 -10 4 -6 -1 4 -4 2 -15 -5 -23 -6 -9 -7 -13 -2 -10 19 11 39 -8 30 -28
-8 -18 -8 -18 -12 -1 -3 9 -9 15 -14 11 -16 -9 -51 7 -45 21 3 8 0 16 -7 19
-7 2 -2 5 10 5 12 1 24 5 27 9 3 5 -3 8 -12 7 -30 -3 -62 -16 -62 -26 0 -5 -9
-18 -20 -29 -17 -17 -26 -52 -21 -82 2 -14 -16 -8 -32 10 -38 43 -29 118 21
164 46 44 98 50 150 18z m-97 -145 c5 3 6 -1 2 -10 -5 -13 -7 -14 -14 -3 -5 7
-8 20 -8 28 1 11 3 10 6 -3 2 -9 9 -15 14 -12z"/>
<path d="M2163 1583 c-12 -2 -42 -22 -67 -44 -82 -72 -97 -183 -36 -267 90
-125 232 -136 329 -26 53 61 68 123 47 196 -18 62 -74 123 -127 138 -33 10
-103 11 -146 3z m138 -86 c46 -31 65 -71 49 -102 -7 -13 -10 -28 -6 -33 3 -6
2 -13 -3 -16 -5 -3 -11 4 -14 15 -5 18 -10 20 -51 14 -48 -8 -52 -5 -36 25 14
27 -12 47 -31 23 -13 -16 -12 -17 3 -5 11 9 18 10 23 2 3 -5 1 -10 -4 -10 -6
0 -11 -13 -11 -30 0 -16 -4 -30 -9 -30 -4 0 -7 12 -4 28 3 25 3 26 -6 5 -14
-32 -23 -29 -15 5 6 26 6 26 -9 7 -9 -11 -17 -31 -17 -45 0 -14 -4 -31 -9 -39
-14 -22 -46 35 -45 79 3 104 112 163 195 107z m-101 -187 c8 -5 11 -10 5 -10
-5 0 -17 5 -25 10 -8 5 -10 10 -5 10 6 0 17 -5 25 -10z m10 -24 c0 -2 -7 -7
-16 -10 -8 -3 -12 -2 -9 4 6 10 25 14 25 6z m35 -5 c3 -5 2 -12 -3 -15 -5 -3
-9 1 -9 9 0 17 3 19 12 6z"/>
<path d="M1107 1343 c-4 -3 -7 -13 -7 -21 0 -8 -11 -36 -25 -63 l-24 -49 54 0
c50 0 56 2 70 30 l16 30 339 0 339 0 16 -30 c14 -28 19 -30 71 -30 31 0 54 3
52 8 -12 22 -46 99 -51 115 -6 16 -35 17 -425 17 -230 0 -422 -3 -425 -7z"/>
<path d="M46 1114 c-19 -19 -20 -36 -4 -52 9 -9 358 -12 1510 -12 l1497 0 11
21 c9 16 8 25 -6 40 -17 19 -51 19 -1505 19 -1339 0 -1489 -2 -1503 -16z"/>
<path d="M390 710 l0 -200 -25 -16 c-22 -14 -32 -15 -64 -5 -21 6 -44 18 -51
26 -7 8 -18 15 -24 15 -19 0 -99 -87 -94 -102 3 -7 34 -28 68 -46 132 -68 278
-31 331 83 16 35 19 67 19 243 l0 202 -80 0 -80 0 0 -200z"/>
<path d="M751 761 c-33 -83 -61 -153 -61 -156 0 -4 -13 -37 -29 -73 -16 -37
-39 -91 -50 -119 l-21 -53 84 0 84 0 16 40 16 40 110 0 110 0 16 -40 16 -40
84 0 83 0 -45 108 c-25 59 -56 136 -69 172 -12 36 -42 111 -65 168 l-43 102
-87 0 -88 0 -61 -149z m183 -128 l26 -73 -61 0 c-45 0 -60 3 -57 13 3 6 16 42
29 79 13 37 27 64 30 60 4 -4 19 -40 33 -79z"/>
<path d="M1290 636 l0 -276 85 0 85 0 0 74 0 74 108 3 c95 4 112 7 154 31 116
69 119 260 5 336 -40 27 -43 27 -239 30 l-198 4 0 -276z m338 118 c29 -20 31
-79 3 -94 -11 -5 -54 -10 -95 -10 l-76 0 0 60 0 60 73 0 c49 0 80 -5 95 -16z"/>
<path d="M1966 838 c-37 -97 -94 -238 -150 -371 l-46 -108 87 3 86 3 12 35 12
35 111 3 112 3 16 -41 16 -40 83 0 82 0 -37 98 c-20 53 -70 177 -110 275 l-73
177 -87 0 -87 0 -27 -72z m147 -190 c15 -40 27 -76 27 -80 0 -5 -27 -8 -61 -8
-45 0 -60 3 -57 13 3 6 16 42 29 80 13 37 26 67 29 67 3 0 18 -33 33 -72z"/>
<path d="M2440 635 l0 -275 80 0 80 0 0 131 0 132 40 -44 c22 -24 72 -83 111
-131 l71 -88 64 0 64 0 0 275 0 275 -80 0 -79 0 -3 -140 -3 -141 -35 45 c-19
25 -71 88 -115 140 l-80 95 -57 1 -58 0 0 -275z"/>
<path d="M450 126 l0 -86 58 0 c71 0 102 25 102 81 0 52 -35 81 -105 87 l-55
4 0 -86z m101 34 c12 -7 19 -21 19 -40 0 -31 -22 -50 -59 -50 -18 0 -21 6 -21
50 0 44 3 50 21 50 11 0 29 -5 40 -10z"/>
<path d="M680 120 c0 -83 1 -90 20 -90 19 0 20 7 20 90 0 83 -1 90 -20 90 -19
0 -20 -7 -20 -90z"/>
<path d="M790 121 c0 -84 1 -91 20 -91 15 0 20 7 20 25 0 34 34 34 56 0 9 -14
25 -25 36 -25 19 0 19 1 2 30 -17 27 -17 30 -1 48 21 22 22 52 3 77 -10 13
-30 20 -75 23 l-61 4 0 -91z m108 23 c2 -16 -4 -23 -23 -28 -33 -9 -45 -1 -45
30 0 22 4 25 33 22 24 -2 33 -8 35 -24z"/>
<path d="M1010 120 l0 -91 67 3 c55 2 68 6 71 20 3 15 -4 18 -48 18 -44 0 -51
3 -48 18 2 12 14 18 41 20 20 2 37 7 37 12 0 5 -17 10 -37 12 -27 2 -39 8 -41
21 -3 14 4 17 42 17 39 0 46 3 46 20 0 18 -7 20 -65 20 l-65 0 0 -90z"/>
<path d="M1264 200 c-55 -22 -69 -91 -30 -137 19 -21 33 -28 64 -28 48 0 78
21 61 42 -9 10 -15 11 -23 3 -18 -18 -55 -11 -72 15 -15 23 -15 27 0 50 17 26
59 34 71 15 5 -8 11 -7 21 1 20 16 18 24 -11 37 -30 14 -51 14 -81 2z"/>
<path d="M1430 190 c0 -15 7 -20 25 -20 24 0 25 -2 25 -71 0 -62 2 -70 18 -67
14 3 17 15 18 68 1 62 2 65 28 68 18 2 26 9 26 23 0 17 -7 19 -70 19 -63 0
-70 -2 -70 -20z"/>
<path d="M1772 133 c-18 -43 -32 -81 -32 -85 0 -15 40 -8 40 7 0 11 11 15 40
15 29 0 40 -4 40 -15 0 -9 9 -15 24 -15 l24 0 -33 82 c-46 111 -60 113 -103
11z m62 1 c10 -26 7 -34 -15 -34 -15 0 -19 4 -15 16 3 9 6 20 6 25 0 15 17 10
24 -7z"/>
<path d="M1960 141 c0 -64 2 -71 27 -91 21 -16 36 -20 62 -16 53 8 65 27 69
106 4 65 3 70 -16 70 -19 0 -21 -7 -24 -61 -3 -69 -22 -94 -55 -73 -13 8 -19
27 -21 73 -3 53 -6 61 -22 61 -18 0 -20 -7 -20 -69z"/>
<path d="M2170 190 c0 -16 7 -20 30 -20 l30 0 0 -65 c0 -58 2 -65 20 -65 18 0
20 7 20 65 0 63 1 65 25 65 18 0 25 5 25 20 0 18 -7 20 -75 20 -68 0 -75 -2
-75 -20z"/>
<path d="M2415 198 c-32 -18 -44 -40 -45 -80 0 -51 48 -92 99 -84 46 7 81 46
81 91 0 61 -80 105 -135 73z m79 -44 c32 -31 8 -84 -38 -84 -29 0 -46 18 -46
50 0 14 5 31 12 38 17 17 54 15 72 -4z"/>
<path d="M2630 190 c-11 -11 -20 -26 -20 -34 0 -19 47 -56 71 -56 24 0 32 -15
15 -29 -10 -8 -21 -8 -42 -1 -21 8 -31 8 -41 -3 -12 -12 -8 -16 30 -27 61 -17
102 1 102 45 0 26 -5 31 -44 45 -24 8 -46 20 -48 26 -6 17 24 25 52 14 20 -8
27 -6 32 6 14 36 -73 48 -107 14z"/>
<path d="M161 156 c-15 -18 -4 -45 23 -52 12 -3 54 -4 95 -2 56 2 76 7 84 20
8 12 7 21 -2 32 -18 21 -183 23 -200 2z"/>
<path d="M2841 156 c-15 -18 -4 -45 23 -52 12 -3 46 -4 76 -2 56 3 79 21 67
52 -8 21 -148 24 -166 2z"/>
</g>
</svg>
